<svg width="56" height="56" viewBox="0 0 56 56" fill="none" xmlns="http://www.w3.org/2000/svg">
<rect width="56" height="56" fill="#AC2027"/>
<path d="M27.9356 31.175C23.6231 31.175 19.9844 31.8797 19.9844 34.5994C19.9844 37.3202 23.6466 38.0002 27.9356 38.0002C32.2481 38.0002 35.8868 37.2955 35.8868 34.5758C35.8868 31.855 32.2246 31.175 27.9356 31.175Z" fill="white"/>
<path opacity="0.4" d="M27.9355 28.5838C30.8556 28.5838 33.1971 26.2289 33.1971 23.2919C33.1971 20.3538 30.8556 18 27.9355 18C25.0153 18 22.6738 20.3538 22.6738 23.2919C22.6738 26.2289 25.0153 28.5838 27.9355 28.5838Z" fill="white"/>
<path opacity="0.4" d="M39.3592 24.5241C40.1147 21.5522 37.8997 18.8832 35.0792 18.8832C34.7725 18.8832 34.4793 18.9169 34.1928 18.9744C34.1547 18.9834 34.1122 19.0025 34.0898 19.0363C34.064 19.0791 34.0831 19.1365 34.111 19.1736C34.9583 20.3691 35.4452 21.8246 35.4452 23.3871C35.4452 24.8843 34.9986 26.2802 34.2151 27.4385C34.1346 27.5578 34.2062 27.7188 34.3483 27.7436C34.5453 27.7785 34.7468 27.7965 34.9527 27.8021C37.0066 27.8561 38.85 26.5267 39.3592 24.5241Z" fill="white"/>
<path d="M41.5108 31.5212C41.1347 30.7152 40.227 30.1625 38.847 29.8912C38.1956 29.7313 36.4327 29.5062 34.793 29.5366C34.7684 29.54 34.755 29.5569 34.7527 29.5681C34.7494 29.5839 34.7561 29.6109 34.7885 29.6278C35.5463 30.0049 38.4754 31.645 38.1071 35.1043C38.0915 35.254 38.2112 35.3835 38.3601 35.361C39.0809 35.2574 40.9355 34.8567 41.5108 33.6083C41.8287 32.9486 41.8287 32.182 41.5108 31.5212Z" fill="white"/>
<path opacity="0.4" d="M21.8054 18.9748C21.52 18.9163 21.2256 18.8837 20.9189 18.8837C18.0984 18.8837 15.8834 21.5527 16.64 24.5245C17.1482 26.5272 18.9916 27.8566 21.0454 27.8026C21.2514 27.797 21.4539 27.7778 21.6498 27.7441C21.792 27.7193 21.8636 27.5583 21.783 27.439C20.9995 26.2795 20.5529 24.8848 20.5529 23.3876C20.5529 21.824 21.0409 20.3685 21.8882 19.1741C21.9151 19.1369 21.9352 19.0795 21.9084 19.0368C21.886 19.0019 21.8446 18.9839 21.8054 18.9748Z" fill="white"/>
<path d="M17.1515 29.8909C15.7714 30.1622 14.8648 30.7149 14.4888 31.5209C14.1698 32.1817 14.1698 32.9483 14.4888 33.6091C15.0641 34.8563 16.9187 35.2582 17.6395 35.3607C17.7883 35.3832 17.907 35.2548 17.8913 35.104C17.5231 31.6458 20.4522 30.0057 21.211 29.6286C21.2424 29.6106 21.2491 29.5847 21.2457 29.5678C21.2435 29.5565 21.2312 29.5397 21.2065 29.5374C19.5657 29.5059 17.804 29.731 17.1515 29.8909Z" fill="white"/>
</svg>
