<svg width="56" height="56" viewBox="0 0 56 56" fill="none" xmlns="http://www.w3.org/2000/svg">
<rect width="56" height="56" fill="#AC2027"/>
<g clip-path="url(#clip0_444_1232)">
<path d="M33.8334 34.9909V41.9909H38.5C40.433 41.9909 42 40.4239 42 38.4909V27.8497C42.0003 27.2436 41.7647 26.6612 41.3431 26.2257L31.4289 15.5075C29.6795 13.6148 26.727 13.4986 24.8343 15.2479C24.7444 15.331 24.6578 15.4176 24.5747 15.5075L14.6779 26.2222C14.2435 26.6595 13.9998 27.2509 14 27.8672V38.4909C14 40.4239 15.567 41.9909 17.5 41.9909H22.1666V34.9909C22.1885 31.8096 24.757 29.2117 27.8581 29.1369C31.063 29.0596 33.8089 31.7017 33.8334 34.9909Z" fill="white"/>
<path d="M28 31.4904C26.067 31.4904 24.5 33.0574 24.5 34.9904V41.9904H31.5V34.9904C31.5 33.0574 29.933 31.4904 28 31.4904Z" fill="white" fill-opacity="0.4"/>
</g>
<defs>
<clipPath id="clip0_444_1232">
<rect width="28" height="28" fill="white" transform="translate(14 14)"/>
</clipPath>
</defs>
</svg>
