<svg width="56" height="56" viewBox="0 0 56 56" fill="none" xmlns="http://www.w3.org/2000/svg">
<rect width="56" height="56" fill="#AC2027"/>
<path d="M24.9072 31.334C20.2828 31.334 16.333 32.0483 16.333 34.9036C16.333 37.761 20.2577 38.5 24.9072 38.5C29.5317 38.5 33.4815 37.7856 33.4815 34.9304C33.4815 32.0729 29.5568 31.334 24.9072 31.334Z" fill="white"/>
<path opacity="0.4" d="M24.9069 28.6123C28.0565 28.6123 30.5805 26.1405 30.5805 23.0561C30.5805 19.9718 28.0565 17.5 24.9069 17.5C21.7585 17.5 19.2334 19.9718 19.2334 23.0561C19.2334 26.1405 21.7585 28.6123 24.9069 28.6123Z" fill="white"/>
<path opacity="0.4" d="M32.8689 23.1569C32.8689 24.7276 32.3872 26.1932 31.5424 27.4106C31.4545 27.5358 31.5321 27.7046 31.6851 27.7314C31.8974 27.7661 32.1155 27.7873 32.3381 27.7918C34.5527 27.8488 36.5402 26.4525 37.0892 24.3497C37.9032 21.2295 35.515 18.428 32.4728 18.428C32.1429 18.428 31.8267 18.4615 31.5185 18.523C31.4762 18.5319 31.4306 18.5521 31.4077 18.5878C31.378 18.6337 31.3997 18.6929 31.4294 18.7321C32.3438 19.9875 32.8689 21.5157 32.8689 23.1569Z" fill="white"/>
<path d="M39.4085 31.6976C39.0033 30.8513 38.025 30.2711 36.5364 29.9861C35.8343 29.8184 33.9325 29.5802 32.1642 29.6138C32.138 29.6171 32.1231 29.635 32.1208 29.6462C32.1174 29.6641 32.1254 29.6909 32.1597 29.7099C32.977 30.1057 36.1357 31.8273 35.7384 35.4584C35.7213 35.6171 35.8503 35.7513 36.0113 35.7289C36.7887 35.6205 38.7887 35.199 39.4085 33.8888C39.7521 33.1957 39.7521 32.3907 39.4085 31.6976Z" fill="white"/>
</svg>
