<svg width="56" height="56" viewBox="0 0 56 56" fill="none" xmlns="http://www.w3.org/2000/svg">
<rect width="56" height="56" fill="#AC2027"/>
<path opacity="0.4" d="M16.3335 26.9248C16.3918 29.6525 16.5552 34.318 16.5785 34.8325C16.6613 35.9326 17.0825 37.0445 17.7382 37.8285C18.6505 38.9286 19.774 39.4198 21.3408 39.4198C23.5062 39.4315 25.8932 39.4315 28.2113 39.4315C30.5388 39.4315 32.7975 39.4315 34.705 39.4198C36.2497 39.4198 37.4082 38.9158 38.3088 37.8285C38.9645 37.0445 39.3857 35.921 39.4452 34.8325C39.4685 34.3996 39.5852 29.3351 39.6552 26.9248H16.3335Z" fill="white"/>
<path d="M27.1196 31.9481V33.4578C27.1196 33.9408 27.5116 34.3328 27.9946 34.3328C28.4776 34.3328 28.8696 33.9408 28.8696 33.4578V31.9481C28.8696 31.4651 28.4776 31.0731 27.9946 31.0731C27.5116 31.0731 27.1196 31.4651 27.1196 31.9481Z" fill="white"/>
<path fill-rule="evenodd" clip-rule="evenodd" d="M25.913 30.9824C25.7963 31.4059 25.3892 31.6766 24.9482 31.6182C21.972 31.2029 19.1277 30.1471 16.7267 28.5616C16.4805 28.4006 16.3335 28.1252 16.3335 27.8312V23.7876C16.3335 21.3376 18.3308 19.3449 20.7867 19.3449H23.0815C23.3008 17.6509 24.7358 16.3337 26.4882 16.3337H29.5005C31.2517 16.3337 32.6878 17.6509 32.9072 19.3449H35.2137C37.6625 19.3449 39.6552 21.3376 39.6552 23.7876V27.8312C39.6552 28.1252 39.507 28.3994 39.2632 28.5616C36.8575 30.1541 34.0015 31.2146 31.0055 31.6287C30.9647 31.6346 30.925 31.6369 30.8853 31.6369C30.4898 31.6369 30.1363 31.3697 30.0372 30.9777C29.8015 30.0491 28.958 29.3992 27.9885 29.3992C27.0062 29.3992 26.172 30.0351 25.913 30.9824ZM29.5005 18.0837H26.4882C25.703 18.0837 25.0473 18.6204 24.8513 19.3449H31.1362C30.9402 18.6204 30.2845 18.0837 29.5005 18.0837Z" fill="white"/>
</svg>
