<svg width="56" height="56" viewBox="0 0 56 56" fill="none" xmlns="http://www.w3.org/2000/svg">
<rect width="56" height="56" fill="#AC2027"/>
<g clip-path="url(#clip0_444_1277)">
<path d="M41.4259 14.0035C35.96 13.9055 29.7265 16.7627 25.7809 21.1949C22.0102 21.266 18.3387 22.8119 15.6356 25.515C15.4781 25.6702 15.4221 25.9024 15.4909 26.1124C15.5609 26.3235 15.7429 26.4764 15.9622 26.5079L20.4586 27.1519L19.9032 27.7737C19.6967 28.0047 19.7072 28.3559 19.9266 28.5752L27.4247 36.0734C27.5379 36.1865 27.6872 36.2437 27.8377 36.2437C27.9765 36.2437 28.1154 36.1947 28.2262 36.0955L28.848 35.5402L29.492 40.0365C29.5235 40.2559 29.6962 40.4169 29.905 40.4869C29.9587 40.5044 30.0147 40.5125 30.0719 40.5125C30.2375 40.5125 30.4067 40.4402 30.5234 40.3247C33.1892 37.6589 34.735 33.9874 34.8062 30.2167C39.243 26.2629 42.1235 20.0317 41.9964 14.5729C41.9882 14.2625 41.7374 14.0117 41.4259 14.0035ZM36.0499 24.0742C35.4817 24.6424 34.735 24.927 33.9872 24.927C33.2394 24.927 32.4927 24.6424 31.9245 24.0742C30.7882 22.9367 30.7882 21.0864 31.9245 19.9489C33.062 18.8114 34.9124 18.8114 36.0499 19.9489C37.1874 21.0864 37.1874 22.9379 36.0499 24.0742Z" fill="white"/>
<path opacity="0.4" d="M17.1781 33.7225C15.9297 34.9708 14.2159 40.6105 14.0246 41.2487C13.9627 41.454 14.0199 41.6768 14.1704 41.8285C14.2824 41.9405 14.4306 42 14.5834 42C14.6394 42 14.6954 41.9918 14.7514 41.9755C15.3896 41.7842 21.0292 40.0703 22.2776 38.822C23.6834 37.4162 23.6834 35.1284 22.2776 33.7225C20.8706 32.3167 18.5839 32.3178 17.1781 33.7225Z" fill="white"/>
</g>
<defs>
<clipPath id="clip0_444_1277">
<rect width="28" height="28" fill="white" transform="translate(14 14)"/>
</clipPath>
</defs>
</svg>
